# xmcd
#
# Track frame offsets:
#	150
#	5382
#	28850
#	52312
#	72187
#	95287
#	118575
#	142412
#	163700
#	225187
#
# Disc length: 3316 seconds
#
# Revision: 11
# Processed by: cddbd v1.5.2PL0 Copyright (c) Steve Scherf et al.
# Submitted via: Jack! The Knife 20 Magnifico
#
DISCID=850cf20a
DTITLE=Helloween - Keeper Of The Seven Keys Part II
DYEAR=1988
DGENRE=Metal
TTITLE0=Invitation
TTITLE1=Eagle Fly Free
TTITLE2=You Always Walk Alone
TTITLE3=Rise And Fall
TTITLE4=Dr. Stein
TTITLE5=We Got The Right
TTITLE6=March Of Time
TTITLE7=I Want Out
TTITLE8=Keeper Of The Seven Keys
TTITLE9=Save Us
EXTD=Tommy Hansen
EXTT0=Michael Weikath
EXTT1=Michael Weikath
EXTT2=Michael Kiske
EXTT3=Michael Weikath
EXTT4=Michael Weikath
EXTT5=Michael Kiske
EXTT6=Kai Hansen
EXTT7=Kai Hansen
EXTT8=Michael Weikath
EXTT9=Kai Hansen
PLAYORDER=
